<?xml version="1.0" encoding="utf-8"?>
<!-- Generator: Adobe Illustrator 24.1.0, SVG Export Plug-In . SVG Version: 6.00 Build 0)  -->
<svg version="1.1" id="Layer_1" xmlns="http://www.w3.org/2000/svg" xmlns:xlink="http://www.w3.org/1999/xlink" x="0px" y="0px"
	 viewBox="0 0 1214 1090" style="enable-background:new 0 0 1214 1090;" xml:space="preserve">
<style type="text/css">
	.st0{fill:#161615;}
</style>
<g id="그룹_10" transform="translate(-68.384 -50.825)">
	<g id="그룹_9" transform="translate(68.384 50.825)">
		<path id="패스_3" class="st0" d="M709,69.7c5.5,1.9,11.4,2.4,17.1,1.2c9.2-1.9,13.6-7.9,12.2-14.9c-1.3-6.5-5.8-9.5-16-11.2
			c-12.3-1.7-20.5-6.2-22.5-16c-2.2-10.9,5.1-20.9,18.7-23.6c7.2-1.5,12.7-0.9,16.2,0.3l-1,7.9c-4.5-1.4-9.3-1.6-14-0.6
			c-9.6,2-12,8.4-11,13.2c1.3,6.5,6.3,8.9,16.7,10.6c12.8,2.1,20,6.6,22.1,16.9c2.2,10.8-3.9,21.8-20.4,25.2
			c-6.7,1.4-14.5,0.9-18.8-0.8L709,69.7z"/>
		<path id="패스_4" class="st0" d="M857.6,38.8l-27.8-0.5l-0.4,25.8l30.9,0.5l-0.1,7.7l-40.2-0.7l1.2-71.4l38.6,0.6l-0.1,7.7
			l-29.4-0.5L830,30.7l27.8,0.5L857.6,38.8z"/>
		<path id="패스_5" class="st0" d="M939.8,53.4l-12.4,20.2l-9.3-2.2l39.9-64l10.8,2.5l7.4,75.1l-9.6-2.3l-2.3-23.6L939.8,53.4z
			 M964.3,51.8l-2.1-21.6c-0.5-4.9-0.5-9.3-0.6-13.5l-0.2,0c-2,3.9-4.1,7.8-6.5,11.8l-11.5,18.5L964.3,51.8z"/>
		<path id="패스_6" class="st0" d="M1057.6,78c3.1,4.9,7.5,8.9,12.7,11.5c8.4,4.2,15.6,2.2,18.8-4.3c3-6,1.3-11.1-5.7-18.7
			c-8.6-8.9-12.4-17.5-7.9-26.5c5-10,16.9-13.3,29.3-7.1c6.5,3.3,10.5,7.1,12.6,10.2l-5.6,5.6c-2.7-3.9-6.4-7-10.6-9.1
			c-8.7-4.3-14.7-0.8-16.8,3.6c-3,6-0.5,10.9,6.6,18.7c8.7,9.6,11.7,17.5,7,26.9c-4.9,9.9-16.5,14.8-31.6,7.3
			c-6.2-3.1-12-8.2-14.3-12.2L1057.6,78z"/>
		<path id="패스_7" class="st0" d="M1230.1,122.2c-16,18.7-35.8,18.9-49.7,7.1c-14.3-12.3-14.9-32-0.9-48.4
			c14.7-17.2,35.1-19.4,49.6-7C1244,86.5,1243.8,106.1,1230.1,122.2z M1187.2,87.1c-9.9,11.6-12.5,27.4-1.5,36.8
			c11.1,9.5,26.2,4.6,36.7-7.7c9.2-10.8,13.2-26.9,1.5-36.9C1212.3,69.4,1197.3,75.2,1187.2,87.1z"/>
		<path id="패스_8" class="st0" d="M1315.2,259l59.6-39.4l5.6,8.4l-17.5,39c-3.6,8.1-7.7,16-12.3,23.5l0.2,0.1
			c7.5-6,14.6-10.9,23.9-17.1l24.9-16.5l4.8,7.2l-59.6,39.4l-5.2-7.8l17.7-38.9c3.7-8.3,7.9-16.5,12.5-24.3l-0.3-0.2
			c-7.2,5.4-14.3,10.3-24.2,16.9l-25.5,16.9L1315.2,259z"/>
		<path id="패스_9" class="st0" d="M1357.6,415.2l69.7-15.7l2.2,9.8l-30.2,30.3c-6.2,6.3-12.8,12.2-19.8,17.6l0.2,0.2
			c9.1-2.9,17.6-5,28.4-7.5l29.2-6.6l1.9,8.5l-69.7,15.7l-2-9.1l30.4-30.1c6.4-6.5,13.2-12.6,20.3-18.3l-0.2-0.3
			c-8.7,2.5-17,4.6-28.6,7.2l-29.8,6.7L1357.6,415.2z"/>
		<path id="패스_10" class="st0" d="M1402.4,573.6l0.5-27.8l-25.8-0.4l-0.5,30.9l-7.7-0.1l0.7-40.2l71.4,1.2l-0.6,38.6l-7.7-0.1
			l0.5-29.4l-22.6-0.4l-0.5,27.8L1402.4,573.6z"/>
		<path id="패스_11" class="st0" d="M1366.2,670.7l73.6,3.7l-2.9,9.3l-37-2.5c-9.1-0.6-18.2-1.4-25.2-2.2l-0.1,0.2
			c6.4,3.2,13.9,7.8,22,12.9l31.6,19.7l-2.8,9.2l-37.2-2.4c-8.7-0.6-17.4-1.2-24.9-2.4l-0.1,0.2c7.1,3.7,14.1,8,21.9,12.7l31.7,19.6
			l-2.8,9l-62.3-40.4l2.8-9.2l38.2,2.3c7.9,0.4,15.8,1.2,23.7,2.4l0.1-0.2c-7.1-3.7-14-7.7-20.7-12.1l-32.6-20.7L1366.2,670.7z"/>
		<path id="패스_12" class="st0" d="M1385.2,866.4c-2.9,5.2-6.2,10.1-10,14.7c-5.7,7.1-11.5,11-17.1,11.9
			c-5.1,0.9-10.6-0.5-15.6-4.4c-5.1-4-7.8-8.7-8.5-13.8c-1-7.1,1.9-14.9,7.5-22c1.5-2,3.2-3.8,5.1-5.4l-22.4-17.9l5.8-7.2
			L1385.2,866.4z M1352.6,852.1c-2,1.6-3.8,3.5-5.3,5.5c-6.9,8.7-7,17.4,0.7,23.5c7.4,5.9,15.1,3.5,21.5-4.4
			c1.9-2.2,3.5-4.7,4.8-7.3L1352.6,852.1z"/>
		<path id="패스_13" class="st0" d="M1229,1009.3c-3.9,4.5-8.2,8.6-12.9,12.2c-7.7,6.2-13.8,8.7-19.8,8.4
			c-4.8-0.2-9.4-2.8-12.9-7.1c-5.9-7.4-5.2-16-0.9-22.6l-0.2-0.2c-5.5,2-11.2,0-17.2-4.7c-8-6.3-13.7-10.6-16.6-11.9l7.4-6
			c2.2,0.8,7.3,4.6,14.4,10.3c7.8,6.4,13.1,6.9,19.9,1.9l6.8-5.4l-19.3-24.2l7.2-5.8L1229,1009.3z M1201.4,989.7l-7.4,5.9
			c-7.7,6.2-9.2,14.3-4.1,20.7c5.8,7.2,13.5,6.2,21.2,0.2c2.4-1.8,4.7-4,6.6-6.4L1201.4,989.7z"/>
		<path id="패스_14" class="st0" d="M1036.2,1045.2c-10-22.5-1.7-40.5,15-47.9c17.2-7.7,35.3,0.3,44.1,20.1
			c9.2,20.7,2.4,40-15,47.8C1062.4,1073.1,1044.8,1064.6,1036.2,1045.2z M1086.4,1021.6c-6.2-13.9-19.3-23.1-32.6-17.2
			c-13.4,6-15.4,21.6-8.8,36.4c5.8,13,18.6,23.5,32.6,17.3C1091.5,1051.9,1092.7,1036,1086.4,1021.6z"/>
		<path id="패스_15" class="st0" d="M943.9,1083c-6.3,1.8-12.7,3.2-19.2,4.1c-13.1,1.8-22.9,0-29.9-4.9
			c-7.1-4.9-11.9-12.6-13.4-24.1c-1.6-11.6,0.7-21.5,6.4-28.9c5.7-7.5,16.1-12.6,29.9-14.5c5.5-0.8,11.1-1.3,16.7-1.4L943.9,1083z
			 M926.2,1021.7c-3.1,0-6.2,0.2-9.3,0.7c-19.5,2.7-28.7,15-26,34.1c2.2,16.7,13.1,26,32.4,23.4c3.6-0.4,7.1-1.2,10.6-2.4
			L926.2,1021.7z"/>
		<path id="패스_16" class="st0" d="M768.7,1090l5.7-41.9c2.2-15.9-4-23.5-13.4-24.8c-10.5-1.4-18.2,4.6-20.3,20.2l-5.7,41.9
			l-9.2-1.3l5.6-41.3c3-21.7,15.6-29.1,31-27c14.5,2,24.3,11.8,21.3,33.7l-5.7,41.7L768.7,1090z"/>
		<path id="패스_17" class="st0" d="M600.9,993c3.8-0.3,10.7,0.7,18.7,4.1c18.6,7.7,27.8,25.2,18.8,46.9
			c-8.5,20.7-28.3,28.9-48.8,20.4c-8.2-3.4-12.7-7.3-14.5-9.4l4.9-6.1c3.4,3.6,7.6,6.4,12.2,8.2c15.5,6.4,29.9,0.7,37-16.6
			c6.7-16.2,1.7-30.4-14.4-37c-5.2-2.1-10.9-3.3-15-3L600.9,993z"/>
		<path id="패스_18" class="st0" d="M479.9,1028.3l17.6,12.8l-4.6,6.3l-42.8-31.1l4.6-6.3l17.7,12.8l37.4-51.5l7.6,5.5
			L479.9,1028.3z"/>
		<path id="패스_19" class="st0" d="M303.2,887.4l13.4,17.1l-6.2,4.9l-32.7-41.6l6.2-4.9l13.5,17.2l50-39.3l5.8,7.3L303.2,887.4z"
			/>
		<path id="패스_20" class="st0" d="M274.5,727.8c22.3-10.3,40.4-2.2,48.1,14.4c7.9,17.1,0.1,35.3-19.5,44.3
			c-20.6,9.5-40,2.9-48-14.5C246.9,754.4,255.2,736.7,274.5,727.8z M298.7,777.7c13.9-6.4,22.8-19.6,16.8-32.8
			c-6.1-13.3-21.8-15.2-36.5-8.4c-12.9,5.9-23.3,18.9-16.9,32.8C268.4,783.2,284.4,784.3,298.7,777.7z"/>
		<path id="패스_21" class="st0" d="M295.9,553.9c2,3.3,4.2,9.9,4.8,18.5c1.6,20.1-9.9,36.2-33.3,38
			c-22.3,1.7-38.6-12.2-40.3-34.3c-0.7-8.9,0.8-14.6,1.9-17.2l7.7,1.6c-1.7,4.7-2.3,9.7-1.8,14.6c1.3,16.7,12.8,27,31.5,25.5
			c17.4-1.4,27.9-12.3,26.5-29.6c-0.4-5.6-2-11.2-4.1-14.8L295.9,553.9z"/>
		<path id="패스_22" class="st0" d="M229.9,466.7l29.4,5.2l6.1-34l-29.4-5.2l1.6-9.2l70.3,12.5l-1.6,9.2l-33-5.9l-6.1,34l33,5.9
			l-1.6,9.1l-70.3-12.5L229.9,466.7z"/>
		<path id="패스_23" class="st0" d="M296.4,356.6l17.2,16.3l-4.1,8.6l-54.3-52.4l4.7-10.1l75,8.4l-4.2,8.9l-23.6-2.7L296.4,356.6z
			 M299.8,332.4l-21.6-2.4c-4.9-0.6-9.2-1.4-13.4-2.2l-0.1,0.2c3.4,2.8,6.8,5.7,10.2,8.8l15.7,15.1L299.8,332.4z"/>
		<path id="패스_24" class="st0" d="M362.6,269l-54.4-46.3l6.5-7.7l42.4,6c8.8,1.2,17.5,2.9,26,5.3l0.1-0.2
			c-7.8-5.5-14.6-11-23.1-18.2l-22.8-19.4l5.6-6.6l54.4,46.3l-6,7.1L349,229c-9-1.2-18-3-26.8-5.3l-0.1,0.3
			c7.2,5.4,13.9,10.8,22.9,18.5l23.3,19.8L362.6,269z"/>
		<path id="패스_25" class="st0" d="M465,116.9l-22.5,16.3l15.1,20.8l25-18.2l4.5,6.3l-32.5,23.6l-42-57.8L444,85.2l4.5,6.3
			l-23.8,17.3l13.3,18.3l22.5-16.3L465,116.9z"/>
		<path id="패스_26" class="st0" d="M515.9,42.2l8.4-3.8l26.4,58l27.8-12.7l3.2,7l-36.2,16.5L515.9,42.2z"/>
	</g>
</g>
</svg>
