<svg id="Layer_1" data-name="Layer 1" xmlns="http://www.w3.org/2000/svg" viewBox="0 0 63 25"><defs><style>.cls-1{fill:#fff;}.cls-2{fill:#c1c1c1;}.cls-3{fill:#f43b03;}</style></defs><title>checked</title><rect class="cls-1" x="0.5" y="0.5" width="24" height="24"/><path class="cls-2" d="M24,1V24H1V1H24m1-1H0V25H25V0Z"/><rect class="cls-1" x="38.5" y="0.5" width="24" height="24"/><path class="cls-3" d="M62,1V24H39V1H62m1-1H38V25H63V0Z"/><path class="cls-3" d="M47.21,19.82l-6.39-6.46a.66.66,0,0,1,0-.93L43,10.26a.65.65,0,0,1,.92,0l6.9,7-2.61,2.58A.72.72,0,0,1,47.21,19.82Z"/><path class="cls-3" d="M60.17,8.2,48.05,20a.47.47,0,0,1-.67,0l-2.73-2.82L57.11,5.05a.65.65,0,0,1,.92,0l2.16,2.21A.66.66,0,0,1,60.17,8.2Z"/></svg>