<svg id="Layer_1" data-name="Layer 1" xmlns="http://www.w3.org/2000/svg" viewBox="0 0 69 69"><defs><style>.cls-1{fill:#fdcb51;}.cls-2{fill:#231f20;}</style></defs><title>instagram_btn</title><circle class="cls-1" cx="34.5" cy="34.5" r="34.5"/><path class="cls-2" d="M709.68,258.3c4.94,0,5.52,0,7.47.1a11,11,0,0,1,3.44.58,5.71,5.71,0,0,1,2.12,1.28,5.26,5.26,0,0,1,1.39,1.95,9,9,0,0,1,.64,3.16c.08,1.79.1,2.33.1,6.87s0,5.07-.1,6.87a9,9,0,0,1-.64,3.15,5.29,5.29,0,0,1-1.39,2,5.83,5.83,0,0,1-2.12,1.27,11,11,0,0,1-3.44.58c-1.95.09-2.53.1-7.47.1s-5.53,0-7.48-.1a11,11,0,0,1-3.43-.58,5.87,5.87,0,0,1-2.13-1.27,5.29,5.29,0,0,1-1.39-2,8.81,8.81,0,0,1-.63-3.15c-.09-1.8-.11-2.33-.11-6.87s0-5.08.11-6.87a8.82,8.82,0,0,1,.63-3.16,5.26,5.26,0,0,1,1.39-1.95,5.76,5.76,0,0,1,2.13-1.28,11,11,0,0,1,3.43-.58C704.15,258.32,704.74,258.3,709.68,258.3Zm0-3.06c-5,0-5.66,0-7.63.1a14.57,14.57,0,0,0-4.49.79,9,9,0,0,0-3.28,2,8.17,8.17,0,0,0-2.13,3,11.56,11.56,0,0,0-.86,4.13c-.09,1.81-.11,2.39-.11,7s0,5.19.11,7a11.5,11.5,0,0,0,.86,4.12,8.17,8.17,0,0,0,2.13,3,9,9,0,0,0,3.28,2,14.57,14.57,0,0,0,4.49.79c2,.09,2.6.11,7.63.11s5.65,0,7.62-.11a14.51,14.51,0,0,0,4.49-.79,9,9,0,0,0,3.28-2,8.32,8.32,0,0,0,2.14-3,11.72,11.72,0,0,0,.86-4.12c.09-1.82.11-2.4.11-7s0-5.2-.11-7a11.78,11.78,0,0,0-.86-4.13,8.32,8.32,0,0,0-2.14-3,9,9,0,0,0-3.28-2,14.51,14.51,0,0,0-4.49-.79C715.33,255.26,714.7,255.24,709.68,255.24Zm0,8.27c-5.25,0-9.5,3.91-9.5,8.73s4.25,8.73,9.5,8.73,9.5-3.91,9.5-8.73S714.92,263.51,709.68,263.51Zm0,14.39a5.68,5.68,0,1,1,6.16-5.66A5.93,5.93,0,0,1,709.68,277.9Zm12.09-14.74a2.23,2.23,0,1,1-2.22-2A2.13,2.13,0,0,1,721.77,263.16Z" transform="translate(-675.18 -237.74)"/></svg>