<?xml version="1.0" encoding="utf-8"?>
<!-- Generator: Adobe Illustrator 24.0.1, SVG Export Plug-In . SVG Version: 6.00 Build 0)  -->
<svg version="1.1" id="Layer_1" xmlns="http://www.w3.org/2000/svg" xmlns:xlink="http://www.w3.org/1999/xlink" x="0px" y="0px"
	 viewBox="0 0 272 128" style="enable-background:new 0 0 272 128;" xml:space="preserve">
<style type="text/css">
	.st0{fill:#999999;}
	.st1{fill:none;stroke:#ECEBE1;stroke-linecap:round;stroke-linejoin:round;stroke-miterlimit:10;}
	.st2{fill:#ECEBE1;}
	.st3{font-family:'AppleSDGothicNeo-Regular-KSCpc-EUC-H';}
	.st4{font-size:27.1743px;}
</style>
<path class="st0" d="M129,109H83c-6.6,0-12-5.4-12-12V51c0-6.6,5.4-12,12-12h46c6.6,0,12,5.4,12,12v46C141,103.6,135.6,109,129,109z
	"/>
<path class="st1" d="M128.8,106.5H83.2c-5.3,0-9.7-4.4-9.7-9.7V51.2c0-5.3,4.4-9.7,9.7-9.7h45.6c5.3,0,9.7,4.4,9.7,9.7v45.6
	C138.5,102.1,134.1,106.5,128.8,106.5z"/>
<text transform="matrix(1 0 0 1 83.9837 89.8477)" class="st2 st3 st4">Top</text>
<g>
	<polyline class="st1" points="98.5,56 106,48.5 113.5,56 	"/>
	<polyline class="st1" points="98.5,60 106,52.5 113.5,60 	"/>
	<circle class="st2" cx="106" cy="60" r="2"/>
</g>
</svg>
