<svg id="Layer_1" data-name="Layer 1" xmlns="http://www.w3.org/2000/svg" viewBox="0 0 69 69"><defs><style>.cls-1{fill:#fdcb51;}.cls-2{fill:#fff;}</style></defs><title>twitter_btn</title><circle class="cls-1" cx="34.5" cy="34.5" r="34.5"/><path class="cls-2" d="M587.5,287.49c15.69,0,24.28-11.74,24.28-21.91,0-.33,0-.67,0-1a16.31,16.31,0,0,0,4.26-4,18.81,18.81,0,0,1-4.9,1.21,8,8,0,0,0,3.75-4.26,18.54,18.54,0,0,1-5.42,1.87,8.94,8.94,0,0,0-6.23-2.43c-4.71,0-8.53,3.44-8.53,7.7a6.77,6.77,0,0,0,.22,1.75,25.22,25.22,0,0,1-17.59-8,7.07,7.07,0,0,0-1.15,3.87,7.5,7.5,0,0,0,3.79,6.4,9.1,9.1,0,0,1-3.86-1v.1a8,8,0,0,0,6.84,7.55,9.43,9.43,0,0,1-3.85.13,8.48,8.48,0,0,0,8,5.35,18.36,18.36,0,0,1-10.6,3.29,19.57,19.57,0,0,1-2-.1,26.11,26.11,0,0,0,13.08,3.46" transform="translate(-558.71 -237.74)"/></svg>