<?xml version="1.0" encoding="utf-8"?>
<!-- Generator: Adobe Illustrator 24.0.2, SVG Export Plug-In . SVG Version: 6.00 Build 0)  -->
<svg version="1.1" id="Layer_1" xmlns="http://www.w3.org/2000/svg" xmlns:xlink="http://www.w3.org/1999/xlink" x="0px" y="0px"
	 viewBox="0 0 1200 800" style="enable-background:new 0 0 1200 800;" xml:space="preserve">
<style type="text/css">
	.st0{fill:#F7F3E7;}
	.st1{fill:#F2DF8F;}
	.st2{font-family:'AppleSDGothicNeo-Medium-KSCpc-EUC-H';}
	.st3{font-size:19.2183px;}
	.st4{font-family:'MADEBruno';}
	.st5{font-size:25.9848px;}
</style>
<g>
	<g>
		<path class="st0" d="M854.1,212.7c-10.9-2.9-19-12.8-19-24.7s8.1-21.8,19-24.7V141h-199v94.5h199V212.7z"/>
	</g>
	<path class="st1" d="M854.1,137.2c0-8.1-6.6-14.7-14.7-14.7H669.7c-8.1,0-14.7,6.6-14.7,14.7v5.8h199V137.2z"/>
	<path class="st1" d="M669.7,253.5h169.7c8.1,0,14.7-6.6,14.7-14.7v-5.3h-199v5.3C655.1,246.9,661.6,253.5,669.7,253.5z"/>
</g>
<text transform="matrix(1 0 0 1 721.3141 171.7344)" class="st2 st3">반가워요</text>
<text transform="matrix(1 0 0 1 729.8242 214.623)" class="st4 st5">10%</text>
<rect x="729.1" y="186.5" width="51" height="3"/>
</svg>
