<?xml version="1.0" encoding="utf-8"?>
<!-- Generator: Adobe Illustrator 24.0.2, SVG Export Plug-In . SVG Version: 6.00 Build 0)  -->
<svg version="1.1" id="Layer_1" xmlns="http://www.w3.org/2000/svg" xmlns:xlink="http://www.w3.org/1999/xlink" x="0px" y="0px"
	 viewBox="0 0 1200 800" style="enable-background:new 0 0 1200 800;" xml:space="preserve">
<style type="text/css">
	.st0{fill:#EAE8E1;}
	.st1{fill:#A5A397;}
	.st2{font-family:'AppleSDGothicNeo-Medium-KSCpc-EUC-H';}
	.st3{font-size:19.2183px;}
	.st4{font-family:'MADEBruno';}
	.st5{font-size:25.9848px;}
</style>
<g>
	<g>
		<path class="st0" d="M1088,198.2c-10.9-2.9-19-12.8-19-24.7s8.1-21.8,19-24.7v-22.3H889V221h199V198.2z"/>
	</g>
	<path class="st1" d="M1088,122.7c0-8.1-6.6-14.7-14.7-14.7H903.6c-8.1,0-14.7,6.6-14.7,14.7v5.8h199V122.7z"/>
	<path class="st1" d="M903.6,239h169.7c8.1,0,14.7-6.6,14.7-14.7V219H889v5.3C889,232.4,895.5,239,903.6,239z"/>
</g>
<text transform="matrix(1 0 0 1 955.2128 158.2344)" class="st2 st3">중복할인</text>
<text transform="matrix(1 0 0 1 970.1287 200.123)" class="st4 st5">5%</text>
<rect x="963" y="172" width="51" height="3"/>
</svg>
